<?xml version="1.0" encoding="utf-8"?>
<!-- Generator: Adobe Illustrator 15.0.2, SVG Export Plug-In  -->
<!DOCTYPE svg PUBLIC "-//W3C//DTD SVG 1.1//EN" "http://www.w3.org/Graphics/SVG/1.1/DTD/svg11.dtd" [
	<!ENTITY ns_flows "http://ns.adobe.com/Flows/1.0/">
]>
<svg version="1.1"
	 xmlns="http://www.w3.org/2000/svg" xmlns:xlink="http://www.w3.org/1999/xlink" xmlns:a="http://ns.adobe.com/AdobeSVGViewerExtensions/3.0/"
	 x="0px" y="0px" width="153px" height="37px" viewBox="-5.722 -5.158 153 37"
	 overflow="visible" enable-background="new -5.722 -5.158 153 37" xml:space="preserve">
<defs>
</defs>
<path fill="#FFFFFF" d="M46.296,20.842h-2.645V18.75c-0.874,1.426-2.346,2.207-4.3,2.207c-3.518,0-5.864-2.553-5.864-6.277
	c0-3.68,2.369-6.186,5.818-6.186c1.978,0,3.449,0.805,4.346,2.23V3.779h2.645V20.842z M43.651,14.771
	c0-2.367-1.541-4.023-3.749-4.023s-3.748,1.678-3.771,4.023c0.023,2.322,1.541,3.979,3.771,3.979
	C42.11,18.75,43.651,17.094,43.651,14.771z"/>
<path fill="#FFFFFF" d="M53.175,5.113c0,0.92-0.667,1.588-1.541,1.588c-0.874,0-1.541-0.668-1.541-1.588
	c0-0.941,0.667-1.609,1.541-1.609C52.508,3.504,53.175,4.172,53.175,5.113z M50.323,20.842V8.609h2.622v12.232H50.323z"/>
<path fill="#FFFFFF" d="M64.19,19.348c-0.874,1.08-2.276,1.609-4.047,1.609c-2.644,0-4.3-1.633-4.3-3.793
	c0-2.23,1.679-3.656,4.622-3.68h3.702v-0.369c0-1.539-0.989-2.459-2.92-2.459c-1.173,0-2.392,0.414-3.61,1.242l-1.081-1.84
	c1.702-1.012,2.943-1.541,5.266-1.541c3.15,0,4.921,1.609,4.944,4.299l0.023,8.025H64.19V19.348z M64.167,16.543v-1.127h-3.312
	c-1.725,0-2.529,0.459-2.529,1.633c0,1.104,0.897,1.816,2.369,1.816C62.581,18.865,64.029,17.877,64.167,16.543z"/>
<path fill="#FFFFFF" d="M82.038,13.23v7.611h-2.645v-6.875c0-1.84-1.104-2.967-2.943-2.967c-2.023,0.023-3.289,1.426-3.472,3.334
	v6.508h-2.645V8.609h2.645v2.346c0.874-1.701,2.438-2.438,4.507-2.438C80.336,8.518,82.038,10.311,82.038,13.23z"/>
<path fill="#FFFFFF" d="M92.917,19.348c-0.874,1.08-2.276,1.609-4.047,1.609c-2.644,0-4.3-1.633-4.3-3.793
	c0-2.23,1.679-3.656,4.622-3.68h3.702v-0.369c0-1.539-0.989-2.459-2.92-2.459c-1.173,0-2.392,0.414-3.61,1.242l-1.081-1.84
	c1.702-1.012,2.943-1.541,5.266-1.541c3.15,0,4.921,1.609,4.944,4.299l0.023,8.025h-2.598V19.348z M92.895,16.543v-1.127h-3.312
	c-1.725,0-2.529,0.459-2.529,1.633c0,1.104,0.897,1.816,2.369,1.816C91.308,18.865,92.756,17.877,92.895,16.543z"/>
<path fill="#3B97D3" d="M111.834,13.23v7.611h-2.645v-6.875c0-1.84-1.104-2.967-2.943-2.967c-2.184,0.023-3.495,1.656-3.495,3.818
	v6.023h-2.645V3.779h2.645V11c0.874-1.725,2.438-2.482,4.53-2.482C110.132,8.518,111.834,10.311,111.834,13.23z"/>
<path fill="#3B97D3" d="M126.14,15.738h-9.244c0.414,1.885,1.863,3.059,3.794,3.059c1.333,0,2.552-0.506,3.449-1.426l1.402,1.494
	c-1.195,1.311-2.943,2.068-5.059,2.068c-3.771,0-6.255-2.506-6.255-6.186c0-3.701,2.553-6.207,6.186-6.23
	C124.714,8.518,126.462,11.322,126.14,15.738z M123.84,13.807c-0.092-1.979-1.402-3.174-3.403-3.174
	c-1.932,0-3.289,1.219-3.587,3.174H123.84z"/>
<path fill="#3B97D3" d="M141.779,14.771c0,3.656-2.299,6.162-5.794,6.162c-1.955,0-3.426-0.781-4.323-2.207v6.576h-2.645V8.609
	h2.645v2.115c0.897-1.426,2.369-2.207,4.277-2.207C139.411,8.518,141.779,11.047,141.779,14.771z M139.112,14.68
	c0-2.275-1.541-3.955-3.726-3.955c-2.184,0-3.725,1.656-3.725,3.955c0,2.369,1.541,4.002,3.725,4.002
	C137.571,18.682,139.112,17.025,139.112,14.68z"/>
<path fill="#3B97D3" d="M13.329,14.061c-2.791-1.119-8.785-1.455-12.383-1.455v0.82c6.124,0,10.22,0.707,12.024,1.361
	C13.021,14.51,13.15,14.264,13.329,14.061z"/>
<path fill="#3B97D3" d="M15.287,13.77c0.265-4.42,3.695-8.142,8.241-8.609l-0.083-0.814c-4.889,0.504-8.594,4.455-8.966,9.189
	C14.776,13.535,15.052,13.623,15.287,13.77z"/>
<path fill="#3B97D3" d="M15.994,15.26c-0.035,0.279-0.142,0.533-0.306,0.746c2.839,1.082,8.71,1.41,12.258,1.41v-0.822
	C21.903,16.594,17.834,15.906,15.994,15.26z"/>
<path fill="#3B97D3" d="M13.6,16.33c-0.301,4.385-3.718,8.064-8.236,8.531l0.083,0.814c4.85-0.5,8.538-4.393,8.959-9.076
	C14.107,16.586,13.83,16.49,13.6,16.33z"/>
<path fill="#FFFFFF" d="M14.404,0c-0.375,0-0.681,0.305-0.681,0.68c0,0.377,0.305,0.682,0.681,0.682
	c6.243,0,11.469,4.41,12.741,10.279c-4.074-2.139-9.07-1.293-12.224,1.967c0.274,0.084,0.514,0.238,0.7,0.447
	c3.058-3.053,7.904-3.697,11.698-1.369c0.075,0.564,0.127,1.135,0.127,1.719c0,2.824-0.913,5.436-2.445,7.574
	c-4.123,0.484-8.033-1.953-9.461-5.803c-0.188,0.182-0.423,0.312-0.684,0.379c1.498,3.895,5.347,6.422,9.515,6.244
	c-2.395,2.838-5.972,4.648-9.967,4.648c-5.751,0-10.636-3.746-12.365-8.924c3.987,1.934,8.777,1.09,11.858-2.031
	c-0.261-0.107-0.483-0.285-0.649-0.508c-3.016,2.992-7.755,3.654-11.518,1.447c-0.232-0.973-0.369-1.984-0.369-3.027
	c0-2.436,0.689-4.775,1.919-6.791c4.448-0.516,8.661,2.175,10.095,6.389c0.194-0.199,0.441-0.342,0.719-0.414
	c-1.53-4.277-5.715-7.062-10.24-6.836c1.079-1.488,2.469-2.761,4.118-3.697C8,3.039,8.015,3.015,8.039,2.997L8.37,3.684
	c0.053,0.109,0.16,0.184,0.282,0.192c0.008,0.001,0.017,0.001,0.025,0.001c0.112,0,0.218-0.056,0.281-0.148L10.66,1.23
	c0.068-0.102,0.078-0.23,0.026-0.34c-0.053-0.109-0.161-0.184-0.282-0.191L7.39,0.473C7.274,0.466,7.152,0.521,7.083,0.621
	c-0.068,0.1-0.078,0.23-0.025,0.34L7.47,1.814C7.413,1.83,7.354,1.84,7.3,1.871C2.797,4.429,0,9.23,0,14.404
	c0,7.943,6.461,14.404,14.404,14.404s14.404-6.461,14.404-14.404S22.347,0,14.404,0z"/>
<path fill="#3B97D3" d="M14.477,17.287c-1.223,0-2.217-0.994-2.217-2.217s0.995-2.217,2.217-2.217s2.217,0.994,2.217,2.217
	S15.7,17.287,14.477,17.287z M14.477,13.82c-0.689,0-1.25,0.561-1.25,1.25s0.561,1.25,1.25,1.25s1.25-0.561,1.25-1.25
	S15.167,13.82,14.477,13.82z"/>
</svg>
